<svg width="24" height="24" viewBox="0 0 24 24" fill="none" xmlns="http://www.w3.org/2000/svg">
<path d="M10.412 3.71C10.11 4.127 10 4.66 10 5V5.52L9.573 5.82C9.207 6.076 8.803 6.53 8.566 7.153L8.533 7.239C8.304 7.839 8.126 8.306 8.131 8.832C8.135 9.316 8.305 9.957 9.083 10.796C9.533 11.224 9.849 11.44 10.229 11.692L10.289 11.732C10.454 11.84 10.631 11.957 10.829 12.097L11 11.76V10.414L8.586 8L10 6.586L11 7.586V5H13V7.586L14 6.586L15.414 8L13 10.414V11.759L13.172 12.097C13.369 11.957 13.546 11.84 13.71 11.731L13.77 11.691C14.1809 11.4312 14.5651 11.1314 14.917 10.796C15.695 9.957 15.865 9.316 15.869 8.832C15.874 8.306 15.696 7.838 15.467 7.239L15.434 7.153C15.2359 6.61949 14.8858 6.15571 14.427 5.819L14 5.521V5C14 4.66 13.89 4.128 13.588 3.71C13.324 3.341 12.874 3 12 3C11.126 3 10.676 3.342 10.412 3.71ZM16.272 12.267C15.8254 12.6907 15.338 13.0692 14.817 13.397C14.6907 13.4799 14.5653 13.5642 14.441 13.65C14.833 13.54 15.243 13.41 15.659 13.259L16.03 13.124C17.374 12.639 18.587 12.2 19.516 11.572C20.46 10.932 21 10.172 21 9C21 8.095 20.805 7.61 20.614 7.355C20.437 7.121 20.189 6.98 19.82 6.925C19.206 6.835 18.401 7.012 17.622 7.321C17.739 7.698 17.839 8.13 17.864 8.598L19.208 7.601L20.398 9.208L16.273 12.268L16.272 12.267ZM16.819 5.487C17.811 5.087 19.011 4.785 20.111 4.947C20.89 5.062 21.658 5.417 22.212 6.154C22.752 6.871 23 7.834 23 9C23 11.006 21.974 12.324 20.636 13.229C19.72 13.849 18.606 14.308 17.54 14.704C17.816 15.129 18.086 15.568 18.325 16.006C18.764 16.809 19.156 17.706 19.243 18.575C19.337 19.508 19.073 20.467 18.159 21.133C17.417 21.674 16.358 21.934 15.022 21.989C14.325 22.629 13.319 23 12 23C10.68 23 9.674 22.63 8.978 21.989C7.642 21.934 6.583 21.674 5.841 21.133C4.927 20.467 4.663 19.508 4.757 18.575C4.844 17.706 5.237 16.809 5.675 16.006C5.915 15.568 6.185 15.129 6.46 14.703C5.393 14.308 4.28 13.849 3.364 13.229C2.026 12.324 1 11.006 1 9C1 7.833 1.249 6.87 1.788 6.154C2.342 5.416 3.11 5.062 3.888 4.947C4.989 4.785 6.188 5.087 7.181 5.487C7.41933 5.11821 7.70624 4.7832 8.034 4.491C8.12188 3.78907 8.3808 3.11946 8.788 2.541C9.424 1.658 10.474 1 12 1C13.526 1 14.576 1.658 15.211 2.54C15.6187 3.11866 15.878 3.78863 15.966 4.491C16.274 4.764 16.566 5.097 16.819 5.487ZM6.38 7.322C5.6 7.013 4.795 6.836 4.181 6.927C3.812 6.981 3.563 7.122 3.387 7.357C3.195 7.61 3 8.094 3 9C3 10.172 3.54 10.933 4.484 11.572C5.413 12.2 6.626 12.639 7.97 13.124L8.341 13.259C8.757 13.409 9.167 13.539 9.559 13.649C9.41512 13.5507 9.27011 13.454 9.124 13.359C8.62476 13.0401 8.15699 12.6745 7.727 12.267L3.601 9.207L4.792 7.601L6.136 8.598C6.161 8.13 6.261 7.698 6.378 7.321L6.38 7.322ZM9.293 15.652C8.99431 15.5724 8.69756 15.4857 8.403 15.392C8.05 15.92 7.713 16.45 7.431 16.966C7.028 17.704 6.794 18.316 6.748 18.776C6.708 19.17 6.804 19.361 7.02 19.518C7.187 19.64 7.466 19.768 7.91 19.861C7.83551 19.2986 7.88396 18.7268 8.052 18.185L8.074 18.12L9.294 15.651L9.293 15.652ZM12 14.32L11.681 15.33L9.932 18.87C9.87619 19.0948 9.86095 19.3278 9.887 19.558C9.92 19.865 10.02 20.15 10.2 20.374C10.426 20.656 10.905 20.999 12 20.999C13.095 20.999 13.574 20.656 13.8 20.374C13.98 20.15 14.08 19.865 14.113 19.558C14.143 19.279 14.111 19.028 14.068 18.869L12.318 15.329L12 14.32ZM16.091 19.859C16.535 19.766 16.814 19.639 16.981 19.516C17.197 19.359 17.293 19.168 17.253 18.773C17.207 18.313 16.973 17.703 16.57 16.964C16.2691 16.4256 15.9452 15.9005 15.599 15.39C15.3038 15.4837 15.0064 15.5704 14.707 15.65L15.927 18.118L15.949 18.183C16.089 18.602 16.174 19.21 16.091 19.859Z" fill="currentColor"/>
</svg>
