<svg width="24" height="24" viewBox="0 0 24 24" fill="none" xmlns="http://www.w3.org/2000/svg">
<path d="M4 21C3.71667 21 3.479 20.904 3.287 20.712C3.095 20.52 2.99934 20.2827 3 20C3 19.7167 3.096 19.479 3.288 19.287C3.48 19.095 3.71734 18.9993 4 19H5V5C5 4.45 5.196 3.979 5.588 3.587C5.98 3.195 6.45067 2.99934 7 3H17C17.55 3 18.021 3.196 18.413 3.588C18.805 3.98 19.0007 4.45067 19 5V19H20C20.2833 19 20.521 19.096 20.713 19.288C20.905 19.48 21.0007 19.7173 21 20C21 20.2833 20.904 20.521 20.712 20.713C20.52 20.905 20.2827 21.0007 20 21H4ZM7 19H17V5H7V19ZM10 13C10.2833 13 10.521 12.904 10.713 12.712C10.905 12.52 11.0007 12.2827 11 12C11 11.7167 10.904 11.479 10.712 11.287C10.52 11.095 10.2827 10.9993 10 11C9.71667 11 9.479 11.096 9.287 11.288C9.095 11.48 8.99934 11.7173 9 12C9 12.2833 9.096 12.521 9.288 12.713C9.48 12.905 9.71734 13.0007 10 13Z" fill="currentColor"/>
</svg>
