<svg width="20" height="20" viewBox="0 0 20 20" fill="none" xmlns="http://www.w3.org/2000/svg">
<g clip-path="url(#clip0_114_623)">
<path d="M19.8625 12.735L14.8625 6.485C14.804 6.4118 14.7299 6.35268 14.6455 6.312C14.5611 6.27132 14.4687 6.25013 14.375 6.25H5.625C5.53128 6.24986 5.43874 6.27093 5.35432 6.31163C5.26989 6.35232 5.19577 6.4116 5.1375 6.485L0.1375 12.735C0.0487415 12.8456 0.00025268 12.9832 0 13.125L0 18.75C0 19.0815 0.131696 19.3995 0.366117 19.6339C0.600537 19.8683 0.918479 20 1.25 20H18.75C19.0815 20 19.3995 19.8683 19.6339 19.6339C19.8683 19.3995 20 19.0815 20 18.75V13.125C20 12.9831 19.9515 12.8455 19.8625 12.735ZM18.75 13.75H14.375L11.875 16.25H8.125L5.625 13.75H1.25V13.3438L5.925 7.5H14.0737L18.7487 13.3438V13.75H18.75Z" fill="currentColor"/>
<path d="M14.375 10H5.625C5.45924 10 5.30027 9.93415 5.18306 9.81694C5.06585 9.69973 5 9.54076 5 9.375C5 9.20924 5.06585 9.05027 5.18306 8.93306C5.30027 8.81585 5.45924 8.75 5.625 8.75H14.375C14.5408 8.75 14.6997 8.81585 14.8169 8.93306C14.9342 9.05027 15 9.20924 15 9.375C15 9.54076 14.9342 9.69973 14.8169 9.81694C14.6997 9.93415 14.5408 10 14.375 10ZM15.625 12.5H4.375C4.20924 12.5 4.05027 12.4342 3.93306 12.3169C3.81585 12.1997 3.75 12.0408 3.75 11.875C3.75 11.7092 3.81585 11.5503 3.93306 11.4331C4.05027 11.3158 4.20924 11.25 4.375 11.25H15.625C15.7908 11.25 15.9497 11.3158 16.0669 11.4331C16.1842 11.5503 16.25 11.7092 16.25 11.875C16.25 12.0408 16.1842 12.1997 16.0669 12.3169C15.9497 12.4342 15.7908 12.5 15.625 12.5Z" fill="currentColor"/>
</g>
<defs>
<clipPath id="clip0_114_623">
<rect width="20" height="20" fill="white"/>
</clipPath>
</defs>
</svg>
