<svg width="20" height="20" viewBox="0 0 20 20" fill="none" xmlns="http://www.w3.org/2000/svg">
<path d="M19.4512 13.875L17.8813 13.0567C18.1654 12.7926 18.4912 12.568 18.8481 12.39C19.0815 12.2713 19.2534 12.0742 19.3265 11.8416C19.3996 11.609 19.3679 11.3598 19.2383 11.1481C19.1088 10.9365 18.8918 10.7797 18.6347 10.7118C18.3776 10.6438 18.1012 10.6703 17.8656 10.7854C17.184 11.1258 16.5801 11.5797 16.0856 12.1229L12.0174 10L16.0847 7.88083C16.579 8.42419 17.183 8.87804 17.8647 9.21833C17.9815 9.27778 18.1102 9.31575 18.2434 9.33007C18.3766 9.34438 18.5116 9.33475 18.6406 9.30173C18.7697 9.26871 18.8902 9.21296 18.9952 9.13769C19.1003 9.06242 19.1878 8.96912 19.2526 8.86318C19.3175 8.75724 19.3585 8.64076 19.3732 8.52045C19.3879 8.40015 19.3761 8.2784 19.3384 8.16224C19.3007 8.04608 19.2379 7.9378 19.1536 7.84366C19.0693 7.74952 18.9652 7.67138 18.8472 7.61375C18.4903 7.43567 18.1645 7.21103 17.8804 6.94708L19.4502 6.12875C19.5703 6.07081 19.6763 5.99168 19.7618 5.89606C19.8473 5.80044 19.9106 5.69028 19.948 5.57213C19.9854 5.45397 19.9961 5.33024 19.9795 5.20829C19.9628 5.08633 19.9192 4.96864 19.8511 4.86221C19.7831 4.75578 19.692 4.66279 19.5833 4.58875C19.4746 4.51472 19.3506 4.46116 19.2185 4.43126C19.0864 4.40135 18.949 4.39572 18.8145 4.41469C18.68 4.43365 18.551 4.47684 18.4354 4.54167L16.8655 5.35958C16.7537 5.00539 16.7005 4.63823 16.7076 4.27C16.7105 4.14941 16.6871 4.02948 16.6385 3.91708C16.59 3.80469 16.5174 3.70204 16.4248 3.61503C16.3323 3.52801 16.2216 3.45834 16.0991 3.41C15.9766 3.36166 15.8448 3.33561 15.7112 3.33333H15.6922C15.4261 3.33329 15.1705 3.42752 14.9806 3.59575C14.7906 3.76398 14.6814 3.99277 14.6764 4.23292C14.6621 4.93537 14.7953 5.63391 15.0689 6.29167L11.0016 8.41208V4.17417C11.7701 4.05955 12.5075 3.81453 13.1749 3.45208C13.4057 3.3266 13.5718 3.12353 13.6366 2.88755C13.7015 2.65157 13.6598 2.402 13.5207 2.19375C13.3817 1.9855 13.1567 1.83563 12.8952 1.7771C12.6337 1.71857 12.3571 1.75619 12.1263 1.88167C11.7765 2.0714 11.3975 2.21336 11.0016 2.30292V0.916667C11.0016 0.673552 10.8945 0.440394 10.704 0.268485C10.5135 0.0965771 10.2552 0 9.98577 0C9.71636 0 9.45799 0.0965771 9.26749 0.268485C9.07699 0.440394 8.96997 0.673552 8.96997 0.916667V2.30292C8.57407 2.21336 8.19504 2.0714 7.84521 1.88167C7.61444 1.75619 7.33788 1.71857 7.07638 1.7771C6.81487 1.83563 6.58984 1.9855 6.45079 2.19375C6.31174 2.402 6.27006 2.65157 6.33492 2.88755C6.39977 3.12353 6.56586 3.3266 6.79663 3.45208C7.46401 3.81453 8.20147 4.05955 8.96997 4.17417V8.41208L4.90263 6.29167C5.17666 5.63371 5.31014 4.93487 5.29602 4.23208C5.29106 3.99194 5.18185 3.76315 4.99189 3.59492C4.80192 3.42669 4.54638 3.33246 4.28022 3.3325H4.26037C4.12696 3.33472 3.99535 3.36064 3.87305 3.40877C3.75075 3.4569 3.64015 3.52631 3.54758 3.61302C3.45501 3.69973 3.38227 3.80205 3.33353 3.91413C3.28479 4.02622 3.26099 4.14587 3.2635 4.26625C3.27094 4.63502 3.21789 5.00275 3.10605 5.3575L1.53618 4.54167C1.42058 4.47944 1.29242 4.43856 1.15916 4.42142C1.02589 4.40428 0.890185 4.4112 0.759917 4.4418C0.629648 4.4724 0.507417 4.52606 0.40033 4.59966C0.293242 4.67326 0.203432 4.76534 0.136121 4.87053C0.068809 4.97573 0.0253379 5.09195 0.00823371 5.21243C-0.00887046 5.33292 0.000733417 5.45528 0.0364873 5.57239C0.0722411 5.6895 0.133432 5.79903 0.216503 5.89461C0.299574 5.99019 0.402869 6.06992 0.520384 6.12917L2.09025 6.9475C1.80608 7.21145 1.48028 7.43609 1.1234 7.61417C1.00545 7.6718 0.901321 7.74994 0.817016 7.84408C0.732711 7.93822 0.6699 8.04649 0.632209 8.16265C0.594517 8.27882 0.582692 8.40056 0.597415 8.52087C0.612137 8.64117 0.653117 8.75766 0.717988 8.8636C0.782859 8.96954 0.870337 9.06283 0.975375 9.13811C1.08041 9.21338 1.20093 9.26913 1.32997 9.30215C1.45901 9.33517 1.59402 9.3448 1.7272 9.33048C1.86039 9.31617 1.98911 9.27819 2.10595 9.21875C2.78752 8.87832 3.39148 8.42449 3.88591 7.88125L7.95417 10L3.88683 12.1192C3.3924 11.5759 2.78844 11.1221 2.10687 10.7817C1.99004 10.7222 1.86131 10.6842 1.72813 10.6699C1.59494 10.6556 1.45993 10.6653 1.33089 10.6983C1.20185 10.7313 1.08134 10.787 0.976298 10.8623C0.871261 10.9376 0.783782 11.0309 0.718911 11.1368C0.65404 11.2428 0.613061 11.3592 0.598338 11.4795C0.583615 11.5999 0.595441 11.7216 0.633132 11.8378C0.670824 11.9539 0.733634 12.0622 0.81794 12.1563C0.902245 12.2505 1.00638 12.3286 1.12432 12.3862C1.48121 12.5643 1.807 12.789 2.09118 13.0529L0.520384 13.875C0.402869 13.9342 0.299574 14.014 0.216503 14.1096C0.133432 14.2051 0.0722411 14.3147 0.0364873 14.4318C0.000733417 14.5489 -0.00887046 14.6712 0.00823371 14.7917C0.0253379 14.9122 0.068809 15.0284 0.136121 15.1336C0.203432 15.2388 0.293242 15.3309 0.40033 15.4045C0.507417 15.4781 0.629648 15.5318 0.759917 15.5624C0.890185 15.593 1.02589 15.5999 1.15916 15.5827C1.29242 15.5656 1.42058 15.5247 1.53618 15.4625L3.10605 14.6446C3.21786 14.9988 3.27107 15.3659 3.26396 15.7342C3.25926 15.977 3.36156 16.2116 3.54838 16.3864C3.73519 16.5613 3.99127 16.6621 4.26037 16.6667H4.2793C4.54545 16.6667 4.801 16.5725 4.99096 16.4042C5.18093 16.236 5.29013 16.0072 5.29509 15.7671C5.3094 15.0646 5.17623 14.3661 4.90263 13.7083L8.96997 11.5879V15.8258C8.20147 15.9404 7.46401 16.1855 6.79663 16.5479C6.56586 16.6734 6.39977 16.8765 6.33492 17.1124C6.27006 17.3484 6.31174 17.598 6.45079 17.8063C6.58984 18.0145 6.81487 18.1644 7.07638 18.2229C7.33788 18.2814 7.61444 18.2438 7.84521 18.1183C8.19504 17.9286 8.57407 17.7866 8.96997 17.6971V19.0833C8.96997 19.3264 9.07699 19.5596 9.26749 19.7315C9.45799 19.9034 9.71636 20 9.98577 20C10.2552 20 10.5135 19.9034 10.704 19.7315C10.8945 19.5596 11.0016 19.3264 11.0016 19.0833V17.6971C11.3975 17.7866 11.7765 17.9286 12.1263 18.1183C12.3571 18.2438 12.6337 18.2814 12.8952 18.2229C13.1567 18.1644 13.3817 18.0145 13.5207 17.8063C13.6598 17.598 13.7015 17.3484 13.6366 17.1124C13.5718 16.8765 13.4057 16.6734 13.1749 16.5479C12.5075 16.1855 11.7701 15.9404 11.0016 15.8258V11.5879L15.0689 13.7083C14.7949 14.3663 14.6614 15.0651 14.6755 15.7679C14.6805 16.0081 14.7897 16.2369 14.9797 16.4051C15.1696 16.5733 15.4252 16.6675 15.6913 16.6675H15.7112C15.8446 16.6653 15.9762 16.6394 16.0985 16.5912C16.2208 16.5431 16.3314 16.4737 16.424 16.387C16.5165 16.3003 16.5893 16.198 16.638 16.0859C16.6868 15.9738 16.7105 15.8541 16.708 15.7337C16.7006 15.365 16.7537 14.9973 16.8655 14.6425L18.4354 15.4604C18.551 15.5274 18.6804 15.5725 18.8159 15.5931C18.9514 15.6136 19.0901 15.6091 19.2236 15.5799C19.3571 15.5507 19.4826 15.4974 19.5926 15.4231C19.7027 15.3489 19.7948 15.2552 19.8636 15.1479C19.9324 15.0406 19.9763 14.9218 19.9927 14.7987C20.0091 14.6756 19.9977 14.5508 19.9592 14.4318C19.9206 14.3128 19.8557 14.2021 19.7684 14.1064C19.6811 14.0107 19.5732 13.932 19.4512 13.875Z" fill="currentColor"/>
</svg>
