<svg width="60" height="60" viewBox="0 0 60 60" fill="none" xmlns="http://www.w3.org/2000/svg">
<path d="M42.5 10H7.5C4.75 10 2.5 12.25 2.5 15V42.5H7.5C7.5 46.75 10.75 50 15 50C19.25 50 22.5 46.75 22.5 42.5H37.5C37.5 46.75 40.75 50 45 50C49.25 50 52.5 46.75 52.5 42.5H57.5V30L50 20H42.5V10ZM25.5 13.25H26.25C27.5 13.5 28.25 14.75 28 16L26.75 21L31.75 19.75C33 19.5 34.25 20.25 34.5 21.5C34.75 22.75 34 24 33 24.25L28 25.5L31.5 29C32.5 29.75 32.5 31.25 31.5 32.25C30.75 33.25 29.25 33.25 28.25 32.25L24.5 28.75L23.25 33.75C23 35 21.75 35.75 20.5 35.25C20.2033 35.1985 19.922 35.0807 19.6772 34.9053C19.4323 34.7299 19.2303 34.5015 19.0861 34.2371C18.9419 33.9728 18.8592 33.6792 18.8443 33.3784C18.8294 33.0776 18.8826 32.7773 19 32.5L20.25 27.5L15.25 28.75C14 29 12.75 28.25 12.5 27.25C12.25 26 13 24.75 14 24.5L19 23.25L15.5 19.25C14.75 18.5 14.75 17 15.5 16C16.25 15.25 17.75 15.25 18.75 16L22.25 19.5L23.5 14.5C23.75 14 24.5 13.25 25.5 13.25ZM42.5 23.75H48.75L53.75 30H42.5V23.75ZM15 38.75C17 38.75 18.75 40.5 18.75 42.5C18.75 44.5 17 46.25 15 46.25C13 46.25 11.25 44.5 11.25 42.5C11.25 40.5 13 38.75 15 38.75ZM45 38.75C47 38.75 48.75 40.5 48.75 42.5C48.75 44.5 47 46.25 45 46.25C43 46.25 41.25 44.5 41.25 42.5C41.25 40.5 43 38.75 45 38.75Z" fill="currentColor"/>
</svg>
