<svg width="26" height="22" viewBox="0 0 26 22" fill="none" xmlns="http://www.w3.org/2000/svg">
<path d="M15.5714 9.72154L19.8571 3.29297M17.7143 10.4358L22.7143 6.15011M20.5 20C22.2414 18.2586 24.1428 15.0414 24.1428 12.5787H5.57141C5.57141 15.0414 7.25859 18.2586 9 20C10 20.5 19 20 20.5 20Z" stroke="currentColor" stroke-width="2" stroke-linecap="round" stroke-linejoin="round"/>
<path d="M11.25 2.1875V3.75H14.0625C14.3111 3.75 14.5496 3.84877 14.7254 4.02459C14.9012 4.2004 15 4.43886 15 4.6875C15 4.93614 14.9012 5.1746 14.7254 5.35041C14.5496 5.52623 14.3111 5.625 14.0625 5.625H0.9375C0.68886 5.625 0.450403 5.52623 0.274587 5.35041C0.0987719 5.1746 0 4.93614 0 4.6875C0 4.43886 0.0987719 4.2004 0.274587 4.02459C0.450403 3.84877 0.68886 3.75 0.9375 3.75H3.75V2.1875C3.75 0.98 4.73 0 5.9375 0H9.0625C10.27 0 11.25 0.98 11.25 2.1875ZM3.12 8.34375L3.945 16.5937C3.95275 16.6709 3.9889 16.7424 4.04642 16.7944C4.10394 16.8463 4.17873 16.8751 4.25625 16.875H10.7438C10.8213 16.8751 10.8961 16.8463 10.9536 16.7944C11.0111 16.7424 11.0472 16.6709 11.055 16.5937L11.88 8.34375C11.911 8.10159 12.0352 7.88108 12.2263 7.7291C12.4173 7.57712 12.6601 7.50566 12.9031 7.52992C13.146 7.55418 13.3699 7.67224 13.5271 7.85901C13.6843 8.04577 13.7625 8.2865 13.745 8.53L12.92 16.78C12.8666 17.32 12.6142 17.8207 12.212 18.1849C11.8097 18.549 11.2863 18.7505 10.7438 18.75H4.25625C3.71401 18.7499 3.19112 18.5485 2.78901 18.1847C2.3869 17.8209 2.13422 17.3208 2.08 16.7813L1.255 8.53125C1.23934 8.40713 1.24869 8.28112 1.28249 8.16067C1.31629 8.04021 1.37385 7.92774 1.45179 7.82988C1.52974 7.73201 1.62648 7.65074 1.73632 7.59085C1.84615 7.53095 1.96687 7.49365 2.09135 7.48114C2.21583 7.46862 2.34156 7.48115 2.46112 7.51798C2.58068 7.55481 2.69167 7.6152 2.78753 7.69559C2.88339 7.77598 2.96219 7.87474 3.01929 7.98606C3.07639 8.09737 3.11063 8.21899 3.12 8.34375ZM5.625 2.1875V3.75H9.375V2.1875C9.375 2.10462 9.34208 2.02513 9.28347 1.96653C9.22487 1.90792 9.14538 1.875 9.0625 1.875H5.9375C5.85462 1.875 5.77513 1.90792 5.71653 1.96653C5.65792 2.02513 5.625 2.10462 5.625 2.1875Z" fill="currentColor"/>
</svg>
