<svg width="20" height="20" viewBox="0 0 20 20" fill="none" xmlns="http://www.w3.org/2000/svg">
<path d="M16.25 12.8154C16.25 16.2674 14.077 18.4404 10.625 18.4404C7.17305 18.4404 5 16.2674 5 12.8154C5 9.11114 9.03242 4.11035 10.2691 2.66387C10.3131 2.61248 10.3678 2.57122 10.4292 2.54293C10.4907 2.51465 10.5575 2.5 10.6252 2.5C10.6929 2.5 10.7597 2.51465 10.8212 2.54293C10.8826 2.57122 10.9372 2.61248 10.9812 2.66387C12.2176 4.11035 16.25 9.11114 16.25 12.8154Z" stroke="black" stroke-width="2" stroke-miterlimit="10"/>
<path d="M13.4375 12.8125C13.4375 13.5584 13.1412 14.2738 12.6137 14.8012C12.0863 15.3287 11.3709 15.625 10.625 15.625" stroke="black" stroke-width="2" stroke-linecap="round" stroke-linejoin="round"/>
</svg>
